<svg width="24" height="25" viewBox="0 0 24 25" fill="none" xmlns="http://www.w3.org/2000/svg">
<g id="Travel/Plane, Trip, International">
<g id="Group">
<g id="Group_2">
<path id="Path" fill-rule="evenodd" clip-rule="evenodd" d="M9.06678 13.9392L7.22778 11.4444L8.57778 10.9822C8.82278 10.8985 9.09178 10.9373 9.30378 11.0873L10.4758 11.9128L13.2948 10.6465L10.3498 6.83959L12.7478 6.31921L16.6208 9.41393L20.7508 7.73444C21.7618 7.32324 22.8778 8.01095 22.9908 9.11497V9.11497C23.0668 9.84758 22.6638 10.5455 21.9978 10.8332L14.5948 14.031C14.4048 14.1126 14.2028 14.1575 13.9968 14.1626L9.74278 14.2708C9.47778 14.28 9.22578 14.1555 9.06678 13.9392Z" stroke="#7D848D" stroke-width="1.4" stroke-linecap="round" stroke-linejoin="round"/>
<path id="Path_2" d="M20.035 8.05175C18.59 5.15498 15.648 3.16632 12.245 3.16632C7.415 3.16632 3.5 7.16303 3.5 12.0944C3.5 17.0247 7.415 21.0224 12.245 21.0224C17.075 21.0224 20.99 17.0257 20.99 12.0944C20.99 11.8281 20.973 11.5669 20.951 11.3067" stroke="#7D848D" stroke-width="1.4" stroke-linecap="round" stroke-linejoin="round"/>
<path id="Path_3" d="M3.5199 12.6933C1.6559 14.0881 0.646902 15.636 1.0969 16.7176C1.7349 18.3297 5.3349 18.3654 9.1379 16.7971" stroke="#7D848D" stroke-width="1.4" stroke-linecap="round" stroke-linejoin="round"/>
</g>
</g>
</g>
</svg>
