<svg width="24" height="25" viewBox="0 0 24 25" fill="none" xmlns="http://www.w3.org/2000/svg">
<g id="Settings">
<path id="Vector" d="M20.7439 16.4358L20.1008 16.0499V16.0499L20.7439 16.4358ZM19.7894 18.0264L20.4324 18.4123V18.4123L19.7894 18.0264ZM3.25609 8.84327L2.61301 8.45733L2.61301 8.45733L3.25609 8.84327ZM4.21064 7.2527L4.85372 7.63864L4.21064 7.2527ZM6.81852 6.58045L7.18269 5.9248L7.18269 5.9248L6.81852 6.58045ZM3.95487 11.3521L3.5907 12.0078H3.5907L3.95487 11.3521ZM17.1815 18.6987L16.8173 19.3543L16.8173 19.3543L17.1815 18.6987ZM20.0451 13.927L19.681 14.5826L20.0451 13.927ZM4.21064 18.0264L3.56756 18.4124L3.56756 18.4124L4.21064 18.0264ZM3.25609 16.4359L3.89917 16.0499H3.89917L3.25609 16.4359ZM19.7894 7.25271L20.4324 6.86678L19.7894 7.25271ZM20.7439 8.84328L20.1008 9.22921L20.1008 9.22922L20.7439 8.84328ZM20.0451 11.3522L20.4093 12.0078L20.0451 11.3522ZM17.1815 6.58046L17.5457 7.23611L17.1815 6.58046ZM3.95487 13.927L4.31904 14.5826H4.31904L3.95487 13.927ZM6.81851 18.6987L6.45435 18.043L6.45434 18.043L6.81851 18.6987ZM17.08 6.63682L16.7158 5.98117L17.08 6.63682ZM6.92 6.63682L6.55583 7.29247L6.55583 7.29247L6.92 6.63682ZM17.08 18.6423L17.4442 17.9866L17.4442 17.9866L17.08 18.6423ZM6.92 18.6423L7.28417 19.298L7.28417 19.298L6.92 18.6423ZM11.0455 4.20642H12.9545V2.70642H11.0455V4.20642ZM12.9545 21.0727H11.0455V22.5727H12.9545V21.0727ZM11.0455 21.0727C10.3777 21.0727 9.88635 20.5591 9.88635 19.9861H8.38635C8.38635 21.4417 9.60449 22.5727 11.0455 22.5727V21.0727ZM14.1136 19.9861C14.1136 20.5591 13.6223 21.0727 12.9545 21.0727V22.5727C14.3955 22.5727 15.6136 21.4417 15.6136 19.9861H14.1136ZM12.9545 4.20642C13.6223 4.20642 14.1136 4.72001 14.1136 5.29305H15.6136C15.6136 3.8374 14.3955 2.70642 12.9545 2.70642V4.20642ZM11.0455 2.70642C9.60449 2.70642 8.38635 3.8374 8.38635 5.29305H9.88635C9.88635 4.72001 10.3777 4.20642 11.0455 4.20642V2.70642ZM20.1008 16.0499L19.1463 17.6405L20.4324 18.4123L21.387 16.8218L20.1008 16.0499ZM3.89917 9.2292L4.85372 7.63864L3.56756 6.86677L2.61301 8.45733L3.89917 9.2292ZM4.85372 7.63864C5.16613 7.11807 5.88336 6.91896 6.45434 7.2361L7.18269 5.9248C5.92745 5.2276 4.30951 5.63044 3.56756 6.86677L4.85372 7.63864ZM4.31904 10.6965C3.76401 10.3882 3.59757 9.73176 3.89917 9.2292L2.61301 8.45733C1.86024 9.71166 2.31951 11.3017 3.5907 12.0078L4.31904 10.6965ZM19.1463 17.6405C18.8339 18.161 18.1166 18.3601 17.5457 18.043L16.8173 19.3543C18.0725 20.0515 19.6905 19.6487 20.4324 18.4123L19.1463 17.6405ZM21.387 16.8218C22.1398 15.5674 21.6805 13.9774 20.4093 13.2713L19.681 14.5826C20.236 14.8909 20.4024 15.5473 20.1008 16.0499L21.387 16.8218ZM4.85372 17.6405L3.89917 16.0499L2.61301 16.8218L3.56756 18.4124L4.85372 17.6405ZM19.1463 7.63865C19.4099 8.07787 19.6485 8.47551 19.8212 8.76335C19.9076 8.90727 19.9775 9.02373 20.0258 9.10422C20.05 9.14446 20.0687 9.17571 20.0814 9.1969C20.0878 9.20749 20.0926 9.21557 20.0959 9.221C20.0975 9.22372 20.0988 9.22577 20.0996 9.22714C20.1 9.22783 20.1003 9.22835 20.1005 9.22869C20.1006 9.22887 20.1007 9.229 20.1007 9.22908C20.1008 9.22913 20.1008 9.22916 20.1008 9.22918C20.1008 9.22919 20.1008 9.2292 20.1008 9.22921C20.1008 9.22921 20.1008 9.22921 20.7439 8.84328C21.387 8.45735 21.387 8.45735 21.387 8.45734C21.387 8.45733 21.387 8.45733 21.387 8.45732C21.387 8.45729 21.3869 8.45726 21.3869 8.45722C21.3869 8.45713 21.3868 8.457 21.3867 8.45683C21.3865 8.45648 21.3862 8.45597 21.3858 8.45528C21.3849 8.4539 21.3837 8.45185 21.3821 8.44914C21.3788 8.44371 21.374 8.43563 21.3676 8.42503C21.3549 8.40385 21.3361 8.3726 21.312 8.33235C21.2637 8.25187 21.1938 8.1354 21.1074 7.99148C20.9347 7.70365 20.696 7.306 20.4324 6.86678L19.1463 7.63865ZM20.1008 9.22922C20.4024 9.73178 20.236 10.3882 19.681 10.6965L20.4093 12.0078C21.6805 11.3018 22.1398 9.71168 21.387 8.45735L20.1008 9.22922ZM17.5457 7.23611C18.1166 6.91897 18.8339 7.11808 19.1463 7.63865L20.4324 6.86678C19.6905 5.63046 18.0725 5.22761 16.8173 5.92481L17.5457 7.23611ZM3.89917 16.0499C3.59757 15.5474 3.76401 14.8909 4.31904 14.5826L3.5907 13.2713C2.31951 13.9774 1.86024 15.5675 2.61301 16.8218L3.89917 16.0499ZM3.56756 18.4124C4.30951 19.6487 5.92745 20.0515 7.18269 19.3543L6.45434 18.043C5.88336 18.3602 5.16613 18.1611 4.85372 17.6405L3.56756 18.4124ZM17.4442 7.29248L17.5457 7.23611L16.8173 5.92481L16.7158 5.98117L17.4442 7.29248ZM6.45434 7.2361L6.55583 7.29247L7.28417 5.98117L7.18269 5.9248L6.45434 7.2361ZM17.5457 18.043L17.4442 17.9866L16.7158 19.2979L16.8173 19.3543L17.5457 18.043ZM6.55583 17.9867L6.45435 18.043L7.18268 19.3543L7.28417 19.298L6.55583 17.9867ZM3.5907 12.0078C4.0759 12.2773 4.0759 13.0018 3.5907 13.2713L4.31904 14.5826C5.83312 13.7417 5.83312 11.5375 4.31904 10.6965L3.5907 12.0078ZM7.28417 19.298C7.76088 19.0332 8.38635 19.3711 8.38635 19.9861H9.88635C9.88635 18.2795 8.07745 17.1415 6.55583 17.9867L7.28417 19.298ZM15.6136 19.9861C15.6136 19.3711 16.2391 19.0332 16.7158 19.2979L17.4442 17.9866C15.9226 17.1415 14.1136 18.2795 14.1136 19.9861H15.6136ZM20.4093 13.2713C19.9241 13.0018 19.9241 12.2773 20.4093 12.0078L19.681 10.6965C18.1669 11.5375 18.1669 13.7416 19.681 14.5826L20.4093 13.2713ZM6.55583 7.29247C8.07746 8.13763 9.88635 6.99963 9.88635 5.29305H8.38635C8.38635 5.90799 7.76088 6.24594 7.28417 5.98116L6.55583 7.29247ZM16.7158 5.98117C16.2391 6.24595 15.6136 5.908 15.6136 5.29305H14.1136C14.1136 6.99964 15.9225 8.13764 17.4442 7.29248L16.7158 5.98117ZM14.25 12.6396C14.25 13.9302 13.2285 14.9506 12 14.9506V16.4506C14.0852 16.4506 15.75 14.73 15.75 12.6396H14.25ZM12 14.9506C10.7715 14.9506 9.75001 13.9302 9.75001 12.6396H8.25001C8.25001 14.73 9.91477 16.4506 12 16.4506V14.9506ZM9.75001 12.6396C9.75001 11.3489 10.7715 10.3285 12 10.3285V8.82851C9.91477 8.82851 8.25001 10.5491 8.25001 12.6396H9.75001ZM12 10.3285C13.2285 10.3285 14.25 11.3489 14.25 12.6396H15.75C15.75 10.5491 14.0852 8.82851 12 8.82851V10.3285Z" fill="#7D848D"/>
</g>
</svg>
